<svg xmlns="http://www.w3.org/2000/svg" version="1.1" width="184.5" height="67">
    <defs>
        <style type="text/css">
            svg {
            background-color: #fff;
            }
            .root text,
            .root tspan {
            font: 12px Arial;
            }
            .root path {
            fill-opacity: 0;
            stroke-width: 2px;
            stroke: #000;
            }
            .root circle {
            stroke-width: 2px;
            stroke: #000;
            }
            .anchor text, .any-character text {
            fill: #fff;
            }
            .anchor rect, .any-character rect {
            fill: #6b6659;
            }
            .escape text, .charset-escape text, .literal text {
            fill: #000;
            }
            .escape rect, .charset-escape rect {
            fill: #bada55;
            }
            .literal rect {
            fill: #dae9e5;
            }
            .charset .charset-box {
            fill: #cbcbba;
            }
            .subexp .subexp-label tspan,
            .charset .charset-label tspan,
            .match-fragment .repeat-label tspan {
            font-size: 10px;
            }
            .repeat-label {
            cursor: help;
            }
            .subexp .subexp-label tspan,
            .charset .charset-label tspan {
            dominant-baseline: text-after-edge;
            }
            .subexp .subexp-box {
            stroke: #908c83;
            stroke-dasharray: 6, 2;
            stroke-width: 2px;
            fill-opacity: 0;
            }
            .quote {
            fill: #908c83;
            }
        </style>
    </defs>

    <desc>Created with Snap</desc>
    <g transform="matrix(1,0,0,1,15,10)" class="root">
        <g transform="matrix(1,0,0,1,10,0)" class="regexp match">
            <path d="M24.6875,12H44.6875M69.375,12H112.5"/>
            <g transform="matrix(1,0,0,1,0,0)" class="match-fragment literal">
                <g class="label">
                    <rect width="24.6875" height="24" rx="3" ry="3"/>
                    <text x="0" y="0" transform="matrix(1,0,0,1,5,17)">“b”</text>
                </g>
            </g>
            <g transform="matrix(1,0,0,1,34.6875,0)" class="match-fragment">
                <path d="M10,12q-10,0 -10,10v2q0,10 10,10h24.6875q10,0 10,-10v-2q0,-10 -10,-10M44.6875,27l5,-5m-5,5l-5,-5"/>
                <g transform="matrix(1,0,0,1,10,0)" class="literal">
                    <g class="label">
                        <rect width="24.6875" height="24" rx="3" ry="3"/>
                        <text x="0" y="0" transform="matrix(1,0,0,1,5,17)">“e”</text>
                    </g>
                </g>
                <text x="0" y="0" transform="matrix(1,0,0,1,10,45)" class="repeat-label">
                    <tspan>1-3次</tspan>
                </text>
            </g>
            <g transform="matrix(1,0,0,1,112.5,0)" class="match-fragment literal">
                <g class="label">
                    <rect width="22" height="24" rx="3" ry="3"/>
                    <text x="0" y="0" transform="matrix(1,0,0,1,5,17)">“r”</text>
                </g>
            </g>
        </g>
        <path d="M10,12H0M144.5,12H154.5"/>
        <circle cx="0" cy="12" r="5" fill="blue"/>
        <circle cx="154.5" cy="12" r="5"  fill="green"/>
    </g>
</svg>
